<?xml version="1.0" standalone="no"?>
<!DOCTYPE svg PUBLIC "-//W3C//DTD SVG 20010904//EN"
 "http://www.w3.org/TR/2001/REC-SVG-20010904/DTD/svg10.dtd">
<svg version="1.0" xmlns="http://www.w3.org/2000/svg"
 width="571.000000pt" height="445.000000pt" viewBox="0 0 571.000000 445.000000"
 preserveAspectRatio="xMidYMid meet">

<g transform="translate(0.000000,445.000000) scale(0.100000,-0.100000)"
fill="#000000" stroke="none">
<path d="M3638 3924 c-32 -17 -34 -32 -12 -105 28 -94 36 -109 62 -122 30 -14
21 1 128 -222 102 -214 106 -223 94 -230 -4 -3 -11 -18 -15 -34 -3 -16 -15
-37 -26 -47 -29 -26 -25 -78 7 -101 26 -19 26 -21 15 -75 -14 -63 -3 -127 29
-180 11 -18 23 -39 26 -46 12 -25 -195 -299 -232 -308 -16 -4 -52 9 -116 43
-51 26 -99 54 -107 61 -11 11 -12 43 -5 190 5 97 9 224 9 282 l0 105 -837 3
c-790 2 -838 1 -846 -15 -5 -10 -6 -66 -2 -129 5 -61 11 -183 15 -270 l7 -159
-28 -16 c-203 -115 -213 -116 -267 -45 -17 24 -65 86 -104 138 -71 93 -84 120
-62 134 15 9 45 83 53 129 4 24 1 62 -7 92 -13 50 -13 52 10 64 32 17 40 55
19 94 -17 31 -17 33 12 96 16 35 49 109 72 164 46 107 60 125 97 125 70 0 153
101 153 185 0 57 -34 124 -62 125 -4 0 -20 -26 -36 -57 -32 -67 -70 -87 -103
-57 -24 22 -24 50 2 108 26 61 20 80 -23 71 -68 -13 -113 -47 -144 -108 -21
-40 -21 -123 0 -162 23 -44 27 -32 -59 -190 -18 -33 -54 -100 -80 -150 -60
-114 -61 -115 -100 -115 -34 0 -85 -38 -85 -63 0 -7 -16 -27 -35 -44 -26 -24
-35 -39 -35 -63 0 -20 -10 -44 -25 -62 -28 -34 -32 -70 -10 -112 20 -39 20
-43 -20 -120 -41 -80 -43 -101 -12 -147 33 -50 82 -72 130 -57 44 14 57 27 94
97 23 44 35 57 61 63 37 10 31 14 112 -82 30 -36 87 -98 126 -139 69 -72 73
-75 120 -75 43 -1 60 6 131 52 45 28 88 52 96 52 11 0 16 -47 26 -237 6 -131
14 -251 16 -266 6 -37 6 -38 -201 -364 -97 -153 -176 -288 -176 -300 0 -23 82
-127 113 -144 11 -5 425 -9 1060 -9 l1043 0 51 55 c91 98 102 59 -120 415
-167 269 -195 319 -191 345 3 17 8 104 11 195 8 243 15 310 29 310 7 0 49 -22
93 -49 96 -58 115 -65 156 -57 44 9 64 28 244 236 12 14 30 36 40 49 19 23 21
23 61 10 37 -13 45 -22 84 -99 39 -76 47 -86 82 -98 50 -16 95 -2 131 39 36
44 32 83 -20 194 -44 94 -45 96 -30 131 21 51 19 75 -10 114 -14 19 -25 47
-25 63 0 20 -10 37 -31 55 -17 15 -36 41 -43 57 -12 28 -35 45 -79 59 -9 3
-20 14 -24 23 -11 32 -46 63 -83 73 -34 9 -39 17 -95 132 -32 68 -78 163 -102
213 -33 70 -42 97 -37 121 5 27 -2 44 -45 108 -54 80 -66 86 -113 60z m65 -44
c9 -11 17 -25 17 -30 0 -6 4 -10 8 -10 5 0 17 -18 27 -40 14 -30 15 -43 6 -54
-9 -10 -6 -23 11 -57 13 -24 26 -46 29 -49 4 -3 15 -29 25 -58 11 -30 26 -61
35 -71 9 -9 19 -34 23 -54 4 -20 10 -37 14 -37 9 0 32 -49 32 -67 0 -7 5 -13
10 -13 6 0 10 -7 10 -15 0 -8 5 -15 11 -15 5 0 7 -4 4 -10 -11 -18 -22 -11
-41 30 -10 22 -22 40 -26 40 -5 0 -8 9 -8 21 0 11 -7 27 -15 35 -8 9 -15 24
-15 35 0 10 -4 19 -10 19 -5 0 -10 8 -10 18 0 10 -9 28 -20 40 -11 12 -20 27
-20 33 0 17 -52 121 -70 140 -8 9 -23 19 -32 22 -10 4 -18 15 -18 25 0 10 -4
22 -9 28 -6 5 -13 33 -17 62 -6 47 -5 52 12 52 11 0 27 -9 37 -20z m-2146 -24
c-7 -11 -16 -24 -21 -27 -14 -10 -12 -92 2 -97 6 -2 12 -10 12 -17 0 -7 7 -16
16 -19 25 -10 94 -7 94 4 0 6 7 10 15 10 8 0 15 9 15 19 0 11 5 23 10 26 6 4
8 11 5 16 -4 5 -1 9 4 9 6 0 11 7 11 16 0 8 5 12 10 9 6 -3 10 -36 10 -73 0
-59 -4 -71 -28 -97 -39 -45 -72 -65 -105 -65 -31 0 -57 -20 -57 -43 0 -9 -3
-17 -7 -19 -12 -5 -43 -76 -43 -98 0 -11 -3 -20 -8 -20 -4 0 -13 -15 -21 -32
-25 -59 -39 -92 -52 -125 -13 -31 -39 -46 -39 -23 0 6 -11 10 -25 10 -14 0
-34 -4 -45 -10 -11 -5 -29 -15 -40 -20 -15 -8 -20 -7 -20 4 0 8 3 16 8 18 10
4 42 67 42 84 0 8 5 14 10 14 6 0 10 7 10 15 0 8 5 15 10 15 6 0 10 9 10 19 0
11 4 23 10 26 5 3 17 23 27 43 9 20 20 39 23 42 4 3 10 14 15 25 4 11 9 22 10
25 2 3 6 15 10 28 4 12 11 22 16 22 15 0 10 55 -7 90 -26 51 -13 139 25 176
39 39 62 52 83 46 14 -3 15 -7 5 -26z m2508 -618 c43 -37 23 -84 -22 -53 -11
8 -42 18 -69 22 l-48 8 24 23 c31 29 82 29 115 0z m-619 -152 c17 -17 21 -206
4 -206 -6 0 -10 -61 -10 -163 0 -90 -4 -167 -9 -173 -5 -5 -12 -94 -15 -199
-8 -254 -16 -357 -28 -372 -8 -10 -167 -13 -734 -13 l-723 0 -13 23 c-8 14
-14 81 -16 197 -2 96 -8 179 -13 184 -5 6 -9 83 -9 172 0 98 -4 165 -10 169
-11 7 -14 352 -4 379 6 14 84 16 786 16 662 0 782 -2 794 -14z m-2126 -70 c0
-8 -4 -18 -10 -21 -5 -3 -10 3 -10 14 0 12 5 21 10 21 6 0 10 -6 10 -14z
m2698 -21 c12 -20 30 -35 41 -35 13 0 21 -10 25 -34 4 -18 15 -41 24 -50 12
-10 17 -26 14 -44 -8 -60 83 -106 134 -67 25 19 44 19 44 0 0 -8 4 -15 9 -15
5 0 12 -16 15 -35 4 -19 10 -35 14 -35 13 0 32 -54 32 -91 0 -29 -7 -43 -31
-63 -61 -51 -108 -29 -156 74 -20 41 -58 120 -84 176 -27 55 -49 106 -49 112
0 7 -3 12 -8 12 -4 0 -13 15 -20 33 -12 28 -29 67 -40 90 -2 4 0 7 5 7 4 0 18
-16 31 -35z m-2726 -40 c-2 -14 -8 -25 -13 -25 -5 0 -9 -11 -9 -25 0 -14 -4
-25 -10 -25 -5 0 -10 -4 -10 -10 0 -9 -22 -60 -76 -176 -13 -28 -24 -56 -24
-62 0 -6 -15 -27 -34 -46 -32 -35 -68 -46 -81 -26 -4 6 -10 8 -15 5 -13 -8
-50 36 -50 59 0 28 24 94 38 108 7 7 12 21 12 33 0 14 3 16 9 7 12 -20 85 -27
121 -12 28 11 30 16 30 61 0 28 5 49 11 49 20 0 39 29 39 59 0 26 4 31 24 31
14 0 28 5 31 10 10 16 13 12 7 -15z m2138 -1078 c14 -13 33 -39 44 -60 10 -20
26 -44 35 -54 9 -10 25 -36 36 -58 11 -22 23 -41 28 -43 4 -2 7 -10 7 -18 0
-8 4 -14 9 -14 5 0 13 -10 17 -22 3 -12 15 -31 25 -42 11 -11 19 -26 19 -33 0
-7 4 -13 8 -13 5 0 17 -18 28 -40 10 -22 22 -40 27 -40 4 0 7 -7 7 -15 0 -8 4
-15 8 -15 5 0 13 -15 19 -34 9 -28 8 -36 -4 -40 -26 -10 -2167 -6 -2183 4 -13
8 -13 14 4 44 10 19 26 43 35 53 9 10 25 36 36 58 11 22 23 43 27 46 11 8 78
120 78 130 0 5 5 9 10 9 6 0 18 16 27 35 9 19 20 35 23 35 3 0 12 16 20 35 8
19 17 35 21 35 4 0 11 10 15 22 8 28 25 44 50 51 10 2 352 5 759 6 l740 0 25
-22z"/>
<path d="M2420 2697 c0 -31 13 -47 36 -47 13 0 24 4 24 9 0 5 3 17 7 26 5 14
2 16 -16 10 -13 -4 -28 -2 -36 5 -12 10 -15 9 -15 -3z"/>
<path d="M2794 2684 c3 -9 6 -20 6 -25 0 -5 11 -9 24 -9 16 0 26 7 29 22 8 28
2 34 -17 19 -10 -8 -16 -9 -21 -1 -10 16 -28 12 -21 -6z"/>
<path d="M3072 2463 c-5 -9 -7 -33 -5 -54 5 -34 3 -38 -28 -52 -66 -29 -95
-36 -218 -53 -115 -15 -272 -16 -351 0 -14 2 -49 8 -78 12 -29 4 -55 11 -58
15 -3 5 -13 9 -23 9 -10 0 -32 7 -47 15 -24 12 -30 22 -34 62 -6 54 -30 73
-30 23 0 -31 -27 -90 -41 -90 -4 0 -9 -7 -13 -15 -5 -14 -2 -14 24 0 30 15 30
15 56 -27 43 -68 116 -118 173 -118 16 0 32 -4 35 -8 2 -4 23 -9 46 -10 22 -2
52 -7 66 -12 32 -12 191 -13 198 -1 3 5 29 11 58 14 140 15 213 51 271 134 18
24 33 39 35 34 2 -6 12 -11 22 -11 10 0 20 -5 22 -12 3 -8 6 -9 11 -1 4 6 -4
22 -18 37 -34 37 -45 60 -45 95 0 34 -14 41 -28 14z"/>
<path d="M2327 2123 c-13 -13 -7 -20 36 -41 59 -29 139 -38 157 -17 17 21 11
25 -41 30 -76 8 -119 17 -125 26 -6 11 -18 12 -27 2z"/>
<path d="M1969 1817 c-9 -7 -19 -22 -23 -35 -4 -12 -12 -22 -17 -22 -5 0 -9
-4 -9 -9 0 -5 -14 -32 -31 -60 -17 -27 -28 -54 -24 -60 4 -8 243 -11 790 -11
760 0 825 2 789 29 -5 3 -18 24 -29 46 -11 22 -26 46 -32 53 -7 7 -13 16 -13
20 0 4 -11 19 -24 35 l-23 27 -669 0 c-511 -1 -673 -4 -685 -13z"/>
<path d="M2440 1572 c0 -10 -4 -22 -9 -27 -5 -6 -12 -40 -16 -77 l-7 -68 251
0 251 0 0 25 c0 14 -4 25 -10 25 -5 0 -10 20 -10 44 0 25 -4 56 -10 70 l-10
26 -215 0 c-200 0 -215 -1 -215 -18z"/>
</g>
</svg>
